<svg xmlns="http://www.w3.org/2000/svg" viewBox="0 0 3094.98 1714.05"><defs><style>.cls-1{isolation:isolate;}.cls-2{fill:#eafcfc;}.cls-3,.cls-4{fill:#9bc1f9;}.cls-3{opacity:0.6;}.cls-4{opacity:0.3;mix-blend-mode:multiply;}.cls-5{fill:#5183bf;}.cls-6{fill:#3c8f7c;}.cls-7{fill:#96d9c9;}.cls-8{fill:#50bfa5;}.cls-9{fill:#0e2e35;}.cls-10{fill:#e59f39;}.cls-11{fill:#eab054;}.cls-12{fill:#f7cc7f;}.cls-13{fill:#f7a491;}.cls-14{fill:#f47458;}.cls-15,.cls-17{fill:#fff;}.cls-16{fill:#184655;}.cls-17{opacity:0.8;}</style></defs><title>hero</title><g class="cls-1"><g id="Layer_2" data-name="Layer 2"><g id="Layer_1-2" data-name="Layer 1"><path class="cls-2" d="M803.4,3.11c437.28-25.29,895.75,106.43,828.36,297.38s360.29-67.83,531,1c121.51,49,72.94,198.22,131.72,258.34,134.79,137.84,272.63-35.74,444.18,68.41s100.21,1078.14,30.36,1078L123.6,1701.43l-31.66,1s-194-279.79-18.38-443.16,55-238.08,33.7-301.22C82.75,885.58,25.57,759,274.72,666s184.82-295.1,178.69-337-87.3-300.68,350-326Z"/><rect class="cls-3" x="2151.29" y="150.58" width="200.4" height="1551.12"/><rect class="cls-3" x="1871.43" y="623.71" width="200.4" height="1077.99"/><rect class="cls-3" x="2435.19" y="486.64" width="200.4" height="1215.06"/><rect class="cls-3" x="1591.57" y="438.86" width="200.4" height="1262.84"/><rect class="cls-3" x="1311.71" y="813.28" width="200.4" height="888.41"/><rect class="cls-4" x="2151.29" y="508.07" width="200.4" height="1193.63"/><rect class="cls-4" x="1871.43" y="872.15" width="200.4" height="829.54"/><rect class="cls-4" x="2435.19" y="766.68" width="200.4" height="935.02"/><rect class="cls-4" x="1591.57" y="729.91" width="200.4" height="971.79"/><rect class="cls-4" x="1311.71" y="1018.04" width="200.4" height="683.66"/><polygon class="cls-5" points="2732.99 162.45 2573.3 283.21 2634.22 287.1 2253.03 957.98 2041.98 641.55 1743.41 1337.96 1551.37 1065.19 1312.01 1403.54 1327.07 1464.1 1551.27 1148.72 1754.27 1437.05 2051.74 743.19 2256.52 1050.2 2678.53 307.47 2717.71 349.61 2732.99 162.45"/><path class="cls-6" d="M1129.44,1253.19C900.29,1070.71,707.76,834.69,562,557.56L246.8,810.75C415.36,1131.17,638,1404.06,902.92,1615Q1016.19,1434.11,1129.44,1253.19Z"/><path class="cls-7" d="M512.62,623.74,316.84,783.52c15.55,29,9.91,68.06-13.25,87.89,148.18,262,333.88,489.64,550.12,674.36,17.69-26.54,51-31.69,75-12.26l142.83-224.68c-22-17.88-25.18-54.43-7.51-80.95C874.1,1065.67,711,865.77,580.9,635.69,557.77,655.51,526.93,650.4,512.62,623.74Z"/><path class="cls-8" d="M776.36,1222.67c48.93-63.14,48.46-156.29,2.31-212-46.28-55.58-125.35-58.19-180-2S538.8,1164.39,590.82,1227,727.54,1285.71,776.36,1222.67Z"/><path class="cls-6" d="M773.12,1043.49,754.67,1064c14.71,27,11.6,54.82-4.26,73s-33.93,20-61.26,3.83c-19.85-11.21-29.39-14.52-35.43-8-5.12,5.53-6.82,15.57,4,29.28a74.57,74.57,0,0,0,17,15.91c6.94,4.67,9.14,15.22,4.86,23.34h0c-4.14,7.84-12.88,10.44-19.58,5.67a104.47,104.47,0,0,1-17.89-16.61l-16,17.61q-8.35-10.47-16.61-21.06l17.37-18.83c-14-27.13-11.26-54.11,5.05-71.22,18-18.9,38.81-13.09,62.66,1.87,16.55,10.32,26.14,12,33,4.33,7.22-8.05,4.87-20.32-4.23-31.92a81.05,81.05,0,0,0-20.64-18.54c-7-4.42-8.93-15.24-4.21-23.32l.52-.89c4.28-7.34,12.46-9.82,18.7-5.75a109.59,109.59,0,0,1,22.64,20.14q8.67-9.43,17.33-18.89Q765.38,1033.78,773.12,1043.49Z"/><path class="cls-8" d="M956.89,1385.15q-78.33-67.08-150.84-142l-24.83,32.29q73.47,75.91,152.95,144Z"/><path class="cls-6" d="M1082.72,1179.62c-287.82-36.51-570.1-132.81-832-283.83l-149.34,349.9c302.77,174.62,629.14,286,961.93,328.17Q1073,1376.75,1082.72,1179.62Z"/><path class="cls-7" d="M240.35,971.63Q194.59,1081.31,148.81,1191c27.64,15.65,41.87,49.33,31.5,76,256.53,137.89,528.78,230.77,806.52,275.15,2.35-29.42,28.71-49.25,59-45.15q7-122.91,13.93-245.83c-27.85-3.78-48.45-31.29-46.1-60.69-243.89-39-483-120.54-708.25-241.62C295,975.51,265.79,986,240.35,971.63Z"/><path class="cls-8" d="M761.8,1322.29c11.52-73.23-34.43-146.94-101.68-169.35-67.28-22.23-137.09,13.06-157,83.51s24.31,151.88,100,177S750.31,1395.4,761.8,1322.29Z"/><path class="cls-6" d="M671.37,1181.62l-6,25c25.93,14.44,36.85,38,32,60-4.91,22.11-19.62,31.93-51.22,32-22.68.48-32.57,2.36-34.6,10.42-1.73,6.81,1.71,15.58,17.81,21.33a78.13,78.13,0,0,0,22.5,4.6c8.31.42,15.36,7.76,15.62,16.22h0c.25,8.18-6,14.38-14.19,13.75a108.46,108.46,0,0,1-23.62-4.72q-2.61,10.77-5.23,21.52-12.36-4.37-24.69-8.86,2.93-11.58,5.84-23.16c-25.44-14.89-36.21-37.61-30.44-58.9,6.35-23.51,27.23-28.74,55.22-28.14,19.38.37,28.49-2.87,30.7-12.16,2.32-9.8-5.71-18.43-19.27-23.33a85,85,0,0,0-27-5c-8.24-.19-15.18-7.87-15-16.52,0-.31,0-.63,0-.94.12-7.85,6-13.69,13.4-13.41a115.67,115.67,0,0,1,29.47,5.28q2.89-11.58,5.78-23.17Q659.92,1177.58,671.37,1181.62Z"/><path class="cls-9" d="M950.55,598.76a176.48,176.48,0,0,1-20.48-8.17c-7.51-3.61-17.23-7.83-23.37-8.77-12.92-2-35.13-.67-47.39,12.59-15.28,16.52-42.42,3-36.95,89.49,6.19,97.91,60.81,87.16,62.14,85.5s48.72-62.64,48.72-62.64,16.57,36.13,16.57,34.8S1034.4,626.91,950.55,598.76Z"/><path class="cls-6" d="M1008.13,1244.24c-226.45,89.47-476.31,130.37-736.41,120.55q25.9,166,51.79,332c300.73,11.36,589.62-35.93,851.45-139.38Z"/><path class="cls-7" d="M299,1427.77q17,103.65,34,207.29c27.31.81,53.14,21.07,57.83,46,250.19,1.83,491.17-37.61,713.89-116.86-11.79-23.73-1.69-49.88,22.24-59.08q-51.35-98-102.68-196c-22,8.46-49.66-4.42-61.44-28.14-195.58,69.59-407.2,104.23-626.91,102.62C340.55,1408.41,324.08,1428.51,299,1427.77Z"/><path class="cls-8" d="M839.8,1486c-25.22-61.42-92.53-99.69-151.81-89.54-59.22,10.31-93.88,66.19-76.07,128.89S699.34,1633,766,1621.45,865,1547.3,839.8,1486Z"/><path class="cls-6" d="M709.35,1414.06l7.11,21.78c25.52.57,44.3,14.36,50.85,33.33,6.57,19.13.36,32.75-22.63,45.73-16.31,9.65-22.65,15.15-20.43,22.23,1.86,6,8.4,11.36,22.77,9.23a62,62,0,0,0,18.5-5.65c6.25-3.07,14.75-.27,18.83,6.17h0c3.93,6.24,2.19,13.61-4,16.46a86.14,86.14,0,0,1-19.38,6q3,9.4,6.07,18.8-11,1.66-22.06,3.23-3.18-10.16-6.37-20.31c-25.37-1.13-43.64-14.32-49.21-33.16-6.16-20.8,6.65-33.39,27.32-44.38,14.29-7.64,19.44-13.87,16.79-22-2.81-8.54-12.63-11.93-24.76-10.19a67.49,67.49,0,0,0-21.91,7.19c-6.1,3.23-14.68.12-18.55-6.63l-.42-.74c-3.51-6.13-1.91-13.06,3.61-15.86a91.36,91.36,0,0,1,23.9-8q-3.23-10.15-6.43-20.31Q699.15,1415.61,709.35,1414.06Z"/><path class="cls-8" d="M1031.69,1423.26q-80.79,28.63-164.84,49.82,6.48,15.64,13,31.28Q965,1482.9,1047,1453.84Z"/><path class="cls-10" d="M634.51,1609.24v81.08c0,13.11,146.22,23.73,326.59,23.73s326.6-10.62,326.6-23.73v-81.08Z"/><path class="cls-11" d="M870.86,1713.14v-103.9H634.51v81.08C634.51,1701.15,734.38,1710.29,870.86,1713.14Z"/><path class="cls-11" d="M881.86,1713.35c25.37.46,51.91.7,79.24.7,40.72,0,79.7-.54,115.65-1.53V1609.24H881.86Z"/><path class="cls-11" d="M1089.84,1712.14c116.36-3.63,197.86-12,197.86-21.82v-81.08H1089.84Z"/><ellipse class="cls-10" cx="961.1" cy="1608.38" rx="326.59" ry="23.73"/><path class="cls-12" d="M1230,1608.38c0,9.09-120.41,16.46-268.94,16.46s-268.94-7.37-268.94-16.46,120.41-16.45,268.94-16.45S1230,1599.3,1230,1608.38Z"/><path class="cls-10" d="M578.63,1523.45v81.08c0,13.1,146.22,23.73,326.59,23.73s326.6-10.63,326.6-23.73v-81.08Z"/><path class="cls-11" d="M815,1627.34V1523.45H578.63v81.08C578.63,1615.36,678.5,1624.5,815,1627.34Z"/><path class="cls-11" d="M826,1627.56c25.37.45,51.92.7,79.24.7,40.73,0,79.71-.54,115.66-1.53V1523.45H826Z"/><path class="cls-11" d="M1034,1626.34c116.36-3.63,197.86-12,197.86-21.81v-81.08H1034Z"/><ellipse class="cls-10" cx="905.22" cy="1522.59" rx="326.59" ry="23.73"/><path class="cls-12" d="M1174.17,1522.59c0,9.09-120.41,16.45-269,16.45s-268.94-7.36-268.94-16.45,120.41-16.46,268.94-16.46S1174.17,1513.5,1174.17,1522.59Z"/><path class="cls-10" d="M615.86,1435.38v81.07c0,13.11,146.22,23.73,326.59,23.73s326.6-10.62,326.6-23.73v-81.07Z"/><path class="cls-11" d="M852.21,1539.27V1435.38H615.86v81.07C615.86,1527.28,715.73,1536.42,852.21,1539.27Z"/><path class="cls-11" d="M863.21,1539.48c25.37.46,51.91.7,79.24.7,40.72,0,79.71-.54,115.66-1.53V1435.38H863.21Z"/><path class="cls-11" d="M1071.19,1538.27c116.36-3.63,197.86-12,197.86-21.82v-81.07H1071.19Z"/><ellipse class="cls-10" cx="942.45" cy="1434.51" rx="326.59" ry="23.73"/><path class="cls-12" d="M1211.4,1434.51c0,9.09-120.41,16.46-269,16.46s-268.94-7.37-268.94-16.46,120.41-16.45,268.94-16.45S1211.4,1425.43,1211.4,1434.51Z"/><path class="cls-10" d="M578.63,1348.51v81.07c0,13.11,146.22,23.74,326.59,23.74s326.6-10.63,326.6-23.74v-81.07Z"/><path class="cls-11" d="M815,1452.4V1348.51H578.63v81.07C578.63,1440.42,678.5,1449.55,815,1452.4Z"/><path class="cls-11" d="M826,1452.61c25.37.46,51.92.71,79.24.71,40.73,0,79.71-.55,115.66-1.54V1348.51H826Z"/><path class="cls-11" d="M1034,1451.4c116.36-3.63,197.86-12,197.86-21.82v-81.07H1034Z"/><ellipse class="cls-10" cx="905.22" cy="1347.65" rx="326.59" ry="23.73"/><path class="cls-12" d="M1174.17,1347.65c0,9.08-120.41,16.45-269,16.45s-268.94-7.37-268.94-16.45,120.41-16.46,268.94-16.46S1174.17,1338.56,1174.17,1347.65Z"/><path class="cls-10" d="M2865.27,1602.32v78c0,12.61-140.61,22.83-314.07,22.83s-314.07-10.22-314.07-22.83v-78Z"/><path class="cls-11" d="M2638,1702.22v-99.9h227.29v78C2865.27,1690.7,2769.23,1699.49,2638,1702.22Z"/><path class="cls-11" d="M2627.41,1702.43c-24.4.44-49.93.68-76.21.68-39.16,0-76.65-.52-111.22-1.48v-99.31h187.43Z"/><path class="cls-11" d="M2427.4,1701.27c-111.9-3.5-190.27-11.58-190.27-21v-78H2427.4Z"/><ellipse class="cls-10" cx="2551.2" cy="1601.49" rx="314.07" ry="22.82"/><path class="cls-12" d="M2292.57,1601.49c0,8.74,115.79,15.82,258.63,15.82s258.63-7.08,258.63-15.82-115.79-15.82-258.63-15.82S2292.57,1592.75,2292.57,1601.49Z"/><path class="cls-10" d="M2919,1519.81v78c0,12.6-140.62,22.82-314.07,22.82s-314.08-10.22-314.08-22.82v-78Z"/><path class="cls-11" d="M2691.72,1619.72v-99.91H2919v78C2919,1608.2,2823,1617,2691.72,1619.72Z"/><path class="cls-11" d="M2681.14,1619.93c-24.4.44-49.92.67-76.2.67-39.16,0-76.65-.52-111.22-1.47v-99.32h187.42Z"/><path class="cls-11" d="M2481.13,1618.76c-111.9-3.49-190.27-11.57-190.27-21v-78h190.27Z"/><ellipse class="cls-10" cx="2604.94" cy="1518.98" rx="314.07" ry="22.82"/><ellipse class="cls-12" cx="2604.94" cy="1518.98" rx="258.63" ry="15.82"/><path class="cls-10" d="M2883.21,1435.11v78c0,12.61-140.62,22.82-314.08,22.82s-314.07-10.21-314.07-22.82v-78Z"/><path class="cls-11" d="M2655.92,1535v-99.91h227.29v78C2883.21,1523.5,2787.16,1532.29,2655.92,1535Z"/><path class="cls-11" d="M2645.34,1535.23c-24.4.44-49.93.67-76.21.67-39.16,0-76.64-.52-111.21-1.47v-99.32h187.42Z"/><path class="cls-11" d="M2445.33,1534.06c-111.9-3.49-190.27-11.57-190.27-21v-78h190.27Z"/><ellipse class="cls-10" cx="2569.13" cy="1434.29" rx="314.07" ry="22.82"/><ellipse class="cls-12" cx="2569.13" cy="1434.29" rx="258.63" ry="15.82"/><path class="cls-10" d="M2919,1351.58v78c0,12.61-140.62,22.83-314.07,22.83s-314.08-10.22-314.08-22.83v-78Z"/><path class="cls-11" d="M2691.72,1451.48v-99.9H2919v78C2919,1440,2823,1448.75,2691.72,1451.48Z"/><path class="cls-11" d="M2681.14,1451.69c-24.4.44-49.92.68-76.2.68-39.16,0-76.65-.52-111.22-1.48v-99.31h187.42Z"/><path class="cls-11" d="M2481.13,1450.53c-111.9-3.5-190.27-11.58-190.27-21v-78h190.27Z"/><ellipse class="cls-10" cx="2604.94" cy="1350.75" rx="314.07" ry="22.82"/><ellipse class="cls-12" cx="2604.94" cy="1350.75" rx="258.63" ry="15.82"/><path class="cls-10" d="M3065.14,1256.83l-18.87,65.87c-3.05,10.65-124.31-14.75-270.84-56.72s-262.85-84.63-259.81-95.28l18.87-65.86Z"/><path class="cls-11" d="M2849,1286.23l24.18-84.4,192,55-18.87,65.87C3043.75,1331.5,2960.49,1315.68,2849,1286.23Z"/><path class="cls-11" d="M2840,1283.85c-20.72-5.53-42.34-11.51-64.54-17.87-33.09-9.48-64.63-19-93.6-28.16l24-83.9,158.33,45.35Z"/><path class="cls-11" d="M2671.29,1234.47c-93.69-30-157.94-55.82-155.67-63.77l18.87-65.86,160.74,46Z"/><path class="cls-10" d="M2534.69,1104.14c-3.05,10.64,113.27,53.3,259.8,95.27s267.8,67.37,270.85,56.72-113.27-53.3-259.8-95.28S2537.74,1093.49,2534.69,1104.14Z"/><path class="cls-12" d="M2581.53,1117.55c-2.12,7.38,94,41.39,214.66,76s220.2,56.6,222.31,49.22-94-41.39-214.66-76S2583.64,1110.17,2581.53,1117.55Z"/><path class="cls-10" d="M2893.54,803.5,2913.62,869c3.25,10.59-112.25,55.4-258,100.09s-266.5,72.34-269.75,61.75l-20.08-65.5Z"/><path class="cls-11" d="M2728.32,946l-25.74-83.94,191-58.56L2913.62,869C2916.31,877.76,2837.88,909.89,2728.32,946Z"/><path class="cls-11" d="M2719.49,948.9c-20.39,6.66-41.77,13.43-63.85,20.2-32.9,10.09-64.53,19.31-93.82,27.42l-25.59-83.44,157.46-48.29Z"/><path class="cls-11" d="M2551.15,999.45c-94.91,25.9-162.83,39.31-165.26,31.4l-20.08-65.5,159.85-49Z"/><path class="cls-10" d="M2365.59,964.65c3.25,10.59,124-17.06,269.75-61.75s261.23-89.5,258-100.09-124,17.05-269.74,61.74S2362.35,954.06,2365.59,964.65Z"/><path class="cls-12" d="M2412.17,950.37c2.25,7.34,101.36-16.54,221.36-53.35s215.47-72.59,213.21-79.93-101.36,16.54-221.36,53.34S2409.92,943,2412.17,950.37Z"/><path class="cls-13" d="M1171.52,1618.48s7.76,41.19,7.77,41.28c.44,5.36.27,18.93,1.43,23.62,4.36,17.62,78.45-25.2,59-28.64-1.76-.31-14.51-13.21-17.43-18.67-5.08-9.51-9.76-27.22-9.76-27.22Z"/><path class="cls-14" d="M1236.06,1652.17s-19.13,4.74-28.86,5.71-22.23-14.15-29.21-11.29c-7.68,3.15-11.87,51.12-11.87,51.12s122.21,5.57,151.1-2.41C1328.66,1692.14,1274.09,1666.74,1236.06,1652.17Z"/><path class="cls-13" d="M1341.93,1616.6s7.76,41.19,7.77,41.28c.43,5.37.27,18.93,1.43,23.62,4.36,17.62,77.09-22.38,57.65-25.82-1.76-.31-13.15-16-16.07-21.49-5.08-9.51-9.75-27.22-9.75-27.22Z"/><path class="cls-14" d="M1404.59,1652.17s-19.13,4.74-28.86,5.71-22.23-14.15-29.21-11.29c-7.68,3.15-11.87,51.12-11.87,51.12s122.21,5.57,151.1-2.41C1497.19,1692.14,1442.62,1666.74,1404.59,1652.17Z"/><path class="cls-9" d="M918.2,1204.23l222.32-51.57s99.71-26.36,123.78,4.58,126.26,458,126.26,458-52.71,4.58-56.15,2.29l-123.4-219a191.1,191.1,0,0,1-22.77-67.37l-8.75-62.72L1089,1294.76s-104.28,22.92-146.69-3.43S918.2,1204.23,918.2,1204.23Z"/><path class="cls-11" d="M1003.58,820.93c3.51.14,13.13,3.35,27.2,29.86,18,33.84,44.24,136.09,44.24,136.09L996.62,1016l-10.07-21.34L970,830.34S1002.6,820.89,1003.58,820.93Z"/><path class="cls-12" d="M899.94,806.19c22.42,0,77.89,6.55,103.63,14.75,0,0,18.92,162-17,285.1-8,27.56,6.65,114.23,6.65,114.23l-232.3-3s27.52-209.54,17.15-243.39S767.44,822,767.44,822s1.59-.25,52.19-9A528.55,528.55,0,0,1,899.94,806.19Z"/><path class="cls-13" d="M764.91,840c21.72-8.12,32.35,186.92,35.27,267.2,38.47,3.68,105.51,0,122.2-1.22,7.85-.59,26-7.2,33.76-8.22,8-1,15.26-1.59,19.19-.91,1.44.25,41.53,16.59,45,20.18,4.26,4.44,15.76,15.65,13.81,20.5s-22.11-13.51-22.11-13.51l-9.86-5.51c12.28,12,35.68,27.69,32.31,33.42s-24.4-10.38-39.45-21.27c12.91,11.62,28.94,32.42,25.25,35.66-3.32,2.91-21.57-21.16-41.06-28.1-7.23-2.57-14.43,4.55-20.11,5.41-4.18.63-10.63,2-14.72.82l-19.58-1.89a102.54,102.54,0,0,0-16.17,2.35c-8.43,1.79-22.26,3.67-33,6.28-61.82,15.06-82.44,22-101.37,22C716.9,1173.22,713.58,859.22,764.91,840Z"/><path class="cls-11" d="M723.69,1023.14c-4.07-82.23-3.47-183.58,42.78-200.87,18.25-6.83,50.42,34.2,44.64,202.54C786.42,1026.84,750.17,1028.48,723.69,1023.14Z"/><path class="cls-14" d="M1238.86,972.89,1020,987.18a14.31,14.31,0,0,0-12.63,9.72l-56.65,168.76-120.66,7.89a6.11,6.11,0,0,0-5.71,6.5h0a6.11,6.11,0,0,0,6.51,5.7l343.4-22.43a24,24,0,0,0,21-15.58l58-155.59A14.3,14.3,0,0,0,1238.86,972.89Z"/><path class="cls-15" d="M1129.8,1077.17c-.43,7.53-6.13,13.33-12.73,12.95s-11.59-6.79-11.15-14.32,6.13-13.34,12.73-13S1130.24,1069.64,1129.8,1077.17Z"/><path class="cls-16" d="M761,1211.93l242.27-41.83s104.75-16,128.82,15,94,432.05,94,432.05-52.72,4.59-56.16,2.29c-2.66-1.77-66.49-135.49-95.15-195.74a228.9,228.9,0,0,1-19-60.29l-9.22-54.59-30.48,10.49a371.93,371.93,0,0,1-166.89,17.86c-23.55-2.92-45.52-8-59.15-16.42C747.64,1294.37,761,1211.93,761,1211.93Z"/><path class="cls-13" d="M909.08,776.63l4.72,35s10.56,50.4-3,60.12S853,810.18,853,810.18l4.67-88.65Z"/><path class="cls-14" d="M856.14,750.26c11.22,30.24,38,48.83,56.94,56l-4-29.67-51.43-55.1Z"/><path class="cls-13" d="M906.29,625.06c28.8-4.63,54.63,18.45,53.91,47.18a353.37,353.37,0,0,1-3.94,44.87c-6.26,40.39-33.91,75.95-52.19,72.78s-64.28-38-56.18-95.49C852.89,658.92,876.07,629.92,906.29,625.06Z"/><path class="cls-13" d="M860.57,701.26c-1.54,8.88-8.68,15.06-15.94,13.8s-11.9-9.49-10.36-18.37,8.68-15.06,15.94-13.79S862.11,692.38,860.57,701.26Z"/><path class="cls-9" d="M850.21,682.9s22.11,5.47,30.31-8.7,37.53-44.74,74.82-32.06-32.81-30.83-35.79-30.83-38.78-.24-38.78-.24-27.59,22.61-28.59,25.1-8.94,29.58-8.94,29.58Z"/><rect class="cls-8" x="1933.31" y="1499.3" width="550.21" height="200.25" transform="translate(4416.84 3198.85) rotate(180)"/><rect class="cls-7" x="1933.31" y="1528.48" width="550.21" height="25.76" transform="translate(4416.84 3082.73) rotate(180)"/><rect class="cls-7" x="1933.31" y="1578.8" width="550.21" height="25.76" transform="translate(4416.84 3183.37) rotate(180)"/><rect class="cls-7" x="1933.31" y="1629.13" width="550.21" height="25.76" transform="translate(4416.84 3284.01) rotate(180)"/><rect class="cls-7" x="1933.31" y="1673.79" width="550.21" height="25.76" transform="translate(4416.84 3373.35) rotate(180)"/><rect class="cls-12" x="2138.14" y="1499.3" width="114.43" height="200.25" transform="translate(4390.7 3198.85) rotate(180)"/><rect class="cls-6" x="2476.85" y="1499.3" width="83.09" height="200.25" transform="translate(5036.79 3198.85) rotate(180)"/><rect class="cls-9" x="54.59" y="1696.71" width="3040.39" height="17.35"/><path class="cls-17" d="M1346,193.16a54.67,54.67,0,0,0-67-40.59,80.47,80.47,0,0,0-96.75-42.74,99.12,99.12,0,0,0-178,17.32,68,68,0,0,0-101.05,59.42c0,2.22.12,4.42.33,6.59Z"/><path class="cls-17" d="M1545.46,463a41.38,41.38,0,0,0-50.72-30.72A60.9,60.9,0,0,0,1421.52,400a75,75,0,0,0-134.73,13.1,51.45,51.45,0,0,0-76.47,45c0,1.68.09,3.35.24,5Z"/><path class="cls-17" d="M612.91,425.1a36.07,36.07,0,0,1,44.22-26.79A53.11,53.11,0,0,1,721,370.11a65.41,65.41,0,0,1,117.49,11.42,44.87,44.87,0,0,1,66.68,39.21c0,1.47-.08,2.93-.21,4.36Z"/><path class="cls-8" d="M1231.13,653.53,1235,701l27.56-31,89.14-73-76,23.95s-37.42,18.18-39.14,20.58S1231.13,653.53,1231.13,653.53Z"/><polygon class="cls-7" points="1190.74 633.15 1351.73 596.94 1231.13 653.53 1190.74 633.15"/><polygon class="cls-7" points="1293.05 688.67 1243.42 663.91 1351.73 596.94 1293.05 688.67"/><path class="cls-6" d="M1212.34,679.88a59,59,0,0,1,13-3.41l-.37-3.45a61.87,61.87,0,0,0-13.82,3.61Z"/><path class="cls-6" d="M1132.89,960.32a141,141,0,0,0,17.46-19.08l2.76,2.08a143.6,143.6,0,0,1-17.88,19.56Zm30.86-41.16c1.7-3.57,3.27-7.29,4.65-11.06,1.57-4.26,3-8.72,4.13-13.25l3.36.86c-1.2,4.64-2.62,9.21-4.23,13.59-1.42,3.87-3,7.69-4.78,11.35Zm14-75.86,3.47-.08a225,225,0,0,1-.86,26.41l-3.45-.33A220.27,220.27,0,0,0,1177.76,843.3Zm-4.93-52,3.43-.49c1.45,10.15,2.49,18.44,3.26,26.1l-3.45.35C1175.3,809.66,1174.27,801.41,1172.83,791.31Zm-3.89-26.12a128.33,128.33,0,0,1-1.31-26.33l3.46.22a124.81,124.81,0,0,0,1.28,25.6l0,.2-3.43.47Zm4.36-52.39a62.9,62.9,0,0,1,15.06-22.12l2.38,2.52a59.54,59.54,0,0,0-14.23,20.91Z"/></g></g></g></svg>